<svg width="800" height="800" xmlns="http://www.w3.org/2000/svg" xmlns:svg="http://www.w3.org/2000/svg">
  <g class="layer">
    <title>bg</title>
    <rect fill="#eeee66" height="100%" id="svg_7" width="100%"/>
  </g>

  <g class="layer">
    <title>img</title>
    <path d="m271.22656,371.943357l0,-40.08203c0,-4.14062 -3.35937,-7.5 -7.5,-7.5c-4.14062,0 -7.5,3.35938 -7.5,7.5l0,40.08203c0,4.14063 3.35938,7.5 7.5,7.5c4.14063,0 7.5,-3.35937 7.5,-7.5zm0,0" id="svg_6"/>
    <path d="m259.03906,417.880857c1.3711,1.09375 3.02735,1.64453 4.6875,1.64453c1.65625,0 3.31641,-0.55078 4.6836,-1.64453c41.91797,-33.53515 50.49218,-90.5625 50.83593,-92.97265c0.45704,-3.19922 -1.18359,-6.32813 -4.07031,-7.76953l-48.09765,-24.05079c-2.10938,-1.05468 -4.59375,-1.05468 -6.70704,0l-48.09375,24.05079c-2.89062,1.4414 -4.52734,4.57031 -4.07421,7.76562c0.34765,2.41406 8.91796,59.44141 50.83593,92.97656zm4.6875,-109.69922l39.67578,19.83985c-2.88281,13.41797 -12.82812,49.67969 -39.67578,74.14062c-26.76172,-24.39843 -36.76172,-60.71875 -39.66797,-74.14453l39.66797,-19.83594zm0,0" id="svg_5"/>
    <path d="m359.91797,363.408207l32.06641,0c8.55468,0 15.51562,-6.95703 15.51562,-15.51563l0,-24.04687c0,-8.5586 -6.96094,-15.51563 -15.51562,-15.51563l-32.06641,0c-8.55469,0 -15.51563,6.95703 -15.51563,15.51563l0,24.04687c0,8.5586 6.96094,15.51563 15.51563,15.51563zm-0.51563,-39.5625c0,-0.28516 0.23047,-0.51563 0.51563,-0.51563l32.06641,0c0.28515,0 0.51562,0.23047 0.51562,0.51563l0,24.05078c0,0.28515 -0.23047,0.51562 -0.51562,0.51562l-32.06641,0c-0.28516,0 -0.51563,-0.23047 -0.51563,-0.51562l0,-24.05078zm0,0" id="svg_4"/>
    <path d="m640.48438,436.587887l-0.51563,0l0,-51.26562c0,-11.37891 -8.125,-21.11719 -19.32422,-23.15234l-70.64453,-12.84375l-19.35156,-58.0625l5.625,0c4.14062,0 7.5,-3.35547 7.5,-7.5c0,-4.14063 -3.35938,-7.5 -7.5,-7.5l-88.69531,0l0,-8.53125c0,-8.55469 -6.95704,-15.51563 -15.51563,-15.51563l-272.54687,0c-8.55469,0 -15.51563,6.96094 -15.51563,15.51563l0,216.4375c0,8.55468 6.96094,15.51562 15.51563,15.51562l49.13281,0c3.67578,27.12109 26.96484,48.09766 55.07812,48.09766c28.11328,0 51.40235,-20.97657 55.07813,-48.09766l194.45703,0c3.67578,27.12109 26.96484,48.09766 55.07812,48.09766c30.65625,0 55.59766,-24.94141 55.59766,-55.59766c0,-2.90234 -0.22656,-5.75 -0.65625,-8.53125l17.20313,0c8.55468,0 15.51562,-6.96094 15.51562,-15.51562l0,-16.03516c0,-8.55469 -6.96094,-15.51563 -15.51562,-15.51563zm-106.59766,-88.17968l-53.72656,0c-0.28516,0 -0.51563,-0.23047 -0.51563,-0.51563l0,-24.04687c0,-0.28516 0.23047,-0.51563 0.51563,-0.51563l45.36328,0l8.36328,25.07813zm-374.88672,135.75781l0,-32.57813l40.59766,0c4.14062,0 7.5,-3.35937 7.5,-7.5c0,-4.14453 -3.35938,-7.5 -7.5,-7.5l-40.59766,0l0,-168.85546c0,-0.28516 0.23047,-0.51563 0.51562,-0.51563l272.54688,0c0.28516,0 0.51562,0.23047 0.51562,0.51563l0,32.0625c0,4.14062 3.35938,7.5 7.5,7.5c4.14454,0 7.5,-3.35938 7.5,-7.5l0,-8.52735l67.25782,0l5.6875,17.0625l-40.36328,0c-8.55469,0 -15.51563,6.96094 -15.51563,15.51563l0,24.05078c0,8.55469 6.96094,15.51562 15.51563,15.51562l63.45312,0l74.34766,13.51563c4.05859,0.73828 7.00781,4.26953 7.00781,8.39453l0,19.20312l-8.53516,0c-4.14062,0 -7.5,3.35547 -7.5,7.5c0,4.14063 3.35938,7.5 7.5,7.5l8.53516,0l0,17.0625l-177.38672,0l0,-104.72656c0,-4.14062 -3.35937,-7.5 -7.5,-7.5c-4.14453,0 -7.5,3.35938 -7.5,7.5l0,104.72656l-104.72656,0c-4.14063,0 -7.5,3.35938 -7.5,7.5s3.35937,7.5 7.5,7.5l104.72656,0l0,33.09766l-113.77734,0c-3.67578,-27.12109 -26.96875,-48.09766 -55.07813,-48.09766c-28.11328,0 -51.40234,20.97657 -55.07812,48.09766l-49.13281,0c-0.28516,0 -0.51563,-0.23437 -0.51563,-0.51953zm354.26172,0.51953l-65.67969,0l0,-33.09766l82.82813,0c-9.13282,8.53907 -15.38672,20.10938 -17.14844,33.09766zm-249.53516,48.09375c-22.38672,0 -40.59765,-18.21094 -40.59765,-40.59375c0,-22.38672 18.21093,-40.59766 40.59765,-40.59766c22.38672,0 40.59766,18.21094 40.59766,40.59766c0,22.38281 -18.21485,40.59375 -40.59766,40.59375zm304.61328,0c-22.38671,0 -40.59765,-18.21094 -40.59765,-40.59375c0,-22.38672 18.21093,-40.59766 40.59765,-40.59766c22.38282,0 40.59766,18.21094 40.59766,40.59766c0,22.38281 -18.21484,40.59375 -40.59766,40.59375zm72.66016,-64.64453c0,0.28516 -0.23047,0.51562 -0.51562,0.51562l-21.78907,0c-3.03515,-6.46093 -7.27343,-12.24218 -12.42578,-17.0625l34.21485,0c0.28515,0 0.51562,0.23047 0.51562,0.51563l0,16.03125zm0,0" id="svg_3"/>
    <path d="m568.33984,468.650387c-12.97656,0 -23.53125,10.5586 -23.53125,23.53516c0,12.97266 10.55469,23.53125 23.53125,23.53125c12.97266,0 23.53125,-10.55859 23.53125,-23.53125c0,-12.97656 -10.55859,-23.53516 -23.53125,-23.53516zm0,32.06641c-4.70703,0 -8.53125,-3.82812 -8.53125,-8.53125s3.82813,-8.53125 8.53125,-8.53125s8.53125,3.82813 8.53125,8.53125s-3.82812,8.53125 -8.53125,8.53125zm0,0" id="svg_2"/>
    <path d="m263.72656,468.650387c-12.97656,0 -23.53125,10.5586 -23.53125,23.53516c0,12.97266 10.55469,23.53125 23.53125,23.53125c12.97657,0 23.53125,-10.55859 23.53125,-23.53125c0,-12.97656 -10.55468,-23.53516 -23.53125,-23.53516zm0,32.06641c-4.70703,0 -8.53125,-3.82812 -8.53125,-8.53125s3.82813,-8.53125 8.53125,-8.53125c4.70313,0 8.53125,3.82813 8.53125,8.53125s-3.82812,8.53125 -8.53125,8.53125zm0,0" id="svg_1"/>
  </g>
</svg>
