<?xml version="1.0" encoding="UTF-8"?>
<svg xmlns="http://www.w3.org/2000/svg" xmlns:xlink="http://www.w3.org/1999/xlink" width="200" height="200" viewBox="0 0 200 200" version="1.1">
  <g id="surface1">
    <path style=" stroke:none;fill-rule:nonzero;fill:rgb(0%,0%,0%);fill-opacity:1;" d="M 67.804688 92.984375 L 67.804688 82.964844 C 67.804688 81.929688 66.96875 81.089844 65.929688 81.089844 C 64.898438 81.089844 64.054688 81.929688 64.054688 82.964844 L 64.054688 92.984375 C 64.054688 94.019531 64.898438 94.859375 65.929688 94.859375 C 66.96875 94.859375 67.804688 94.019531 67.804688 92.984375 Z M 67.804688 92.984375 "/>
    <path style=" stroke:none;fill-rule:nonzero;fill:rgb(0%,0%,0%);fill-opacity:1;" d="M 64.757812 104.46875 C 65.101562 104.742188 65.515625 104.882812 65.929688 104.882812 C 66.34375 104.882812 66.761719 104.742188 67.101562 104.46875 C 77.582031 96.085938 79.726562 81.828125 79.8125 81.226562 C 79.925781 80.425781 79.515625 79.644531 78.792969 79.285156 L 66.769531 73.273438 C 66.242188 73.007812 65.621094 73.007812 65.09375 73.273438 L 53.070312 79.285156 C 52.347656 79.644531 51.9375 80.425781 52.050781 81.226562 C 52.136719 81.828125 54.28125 96.085938 64.757812 104.46875 Z M 65.929688 77.046875 L 75.851562 82.003906 C 75.128906 85.359375 72.644531 94.425781 65.929688 100.539062 C 59.242188 94.441406 56.742188 85.359375 56.015625 82.003906 Z M 65.929688 77.046875 "/>
    <path style=" stroke:none;fill-rule:nonzero;fill:rgb(0%,0%,0%);fill-opacity:1;" d="M 89.980469 90.851562 L 97.996094 90.851562 C 100.132812 90.851562 101.875 89.113281 101.875 86.972656 L 101.875 80.960938 C 101.875 78.820312 100.132812 77.082031 97.996094 77.082031 L 89.980469 77.082031 C 87.839844 77.082031 86.101562 78.820312 86.101562 80.960938 L 86.101562 86.972656 C 86.101562 89.113281 87.839844 90.851562 89.980469 90.851562 Z M 89.851562 80.960938 C 89.851562 80.890625 89.90625 80.832031 89.980469 80.832031 L 97.996094 80.832031 C 98.066406 80.832031 98.125 80.890625 98.125 80.960938 L 98.125 86.972656 C 98.125 87.046875 98.066406 87.101562 97.996094 87.101562 L 89.980469 87.101562 C 89.90625 87.101562 89.851562 87.046875 89.851562 86.972656 Z M 89.851562 80.960938 "/>
    <path style=" stroke:none;fill-rule:nonzero;fill:rgb(0%,0%,0%);fill-opacity:1;" d="M 160.121094 109.148438 L 159.992188 109.148438 L 159.992188 96.332031 C 159.992188 93.484375 157.960938 91.050781 155.160156 90.542969 L 137.5 87.332031 L 132.664062 72.816406 L 134.070312 72.816406 C 135.101562 72.816406 135.945312 71.976562 135.945312 70.941406 C 135.945312 69.90625 135.101562 69.066406 134.070312 69.066406 L 111.894531 69.066406 L 111.894531 66.933594 C 111.894531 64.792969 110.15625 63.054688 108.015625 63.054688 L 39.878906 63.054688 C 37.742188 63.054688 36 64.792969 36 66.933594 L 36 121.042969 C 36 123.179688 37.742188 124.921875 39.878906 124.921875 L 52.164062 124.921875 C 53.082031 131.703125 58.902344 136.945312 65.929688 136.945312 C 72.960938 136.945312 78.78125 131.703125 79.703125 124.921875 L 128.316406 124.921875 C 129.234375 131.703125 135.054688 136.945312 142.085938 136.945312 C 149.75 136.945312 155.984375 130.710938 155.984375 123.046875 C 155.984375 122.320312 155.929688 121.609375 155.820312 120.914062 L 160.121094 120.914062 C 162.257812 120.914062 164 119.171875 164 117.035156 L 164 113.027344 C 164 110.886719 162.257812 109.148438 160.121094 109.148438 Z M 133.472656 87.101562 L 120.039062 87.101562 C 119.96875 87.101562 119.910156 87.042969 119.910156 86.972656 L 119.910156 80.960938 C 119.910156 80.890625 119.96875 80.832031 120.039062 80.832031 L 131.382812 80.832031 Z M 39.75 121.042969 L 39.75 112.898438 L 49.898438 112.898438 C 50.933594 112.898438 51.773438 112.058594 51.773438 111.023438 C 51.773438 109.984375 50.933594 109.148438 49.898438 109.148438 L 39.75 109.148438 L 39.75 66.933594 C 39.75 66.863281 39.808594 66.804688 39.878906 66.804688 L 108.015625 66.804688 C 108.085938 66.804688 108.144531 66.863281 108.144531 66.933594 L 108.144531 74.949219 C 108.144531 75.984375 108.984375 76.824219 110.019531 76.824219 C 111.054688 76.824219 111.894531 75.984375 111.894531 74.949219 L 111.894531 72.816406 L 128.710938 72.816406 L 130.132812 77.082031 L 120.039062 77.082031 C 117.902344 77.082031 116.160156 78.824219 116.160156 80.960938 L 116.160156 86.972656 C 116.160156 89.113281 117.902344 90.851562 120.039062 90.851562 L 135.902344 90.851562 L 154.492188 94.230469 C 155.503906 94.417969 156.242188 95.300781 156.242188 96.332031 L 156.242188 101.132812 L 154.109375 101.132812 C 153.074219 101.132812 152.234375 101.96875 152.234375 103.007812 C 152.234375 104.042969 153.074219 104.882812 154.109375 104.882812 L 156.242188 104.882812 L 156.242188 109.148438 L 111.894531 109.148438 L 111.894531 82.964844 C 111.894531 81.929688 111.054688 81.089844 110.019531 81.089844 C 108.984375 81.089844 108.144531 81.929688 108.144531 82.964844 L 108.144531 109.148438 L 81.964844 109.148438 C 80.929688 109.148438 80.089844 109.988281 80.089844 111.023438 C 80.089844 112.058594 80.929688 112.898438 81.964844 112.898438 L 108.144531 112.898438 L 108.144531 121.171875 L 79.703125 121.171875 C 78.78125 114.390625 72.960938 109.148438 65.929688 109.148438 C 58.902344 109.148438 53.082031 114.390625 52.164062 121.171875 L 39.878906 121.171875 C 39.808594 121.171875 39.75 121.113281 39.75 121.042969 Z M 128.316406 121.171875 L 111.894531 121.171875 L 111.894531 112.898438 L 132.601562 112.898438 C 130.320312 115.03125 128.757812 117.925781 128.316406 121.171875 Z M 65.929688 133.195312 C 60.335938 133.195312 55.78125 128.640625 55.78125 123.046875 C 55.78125 117.449219 60.335938 112.898438 65.929688 112.898438 C 71.527344 112.898438 76.082031 117.449219 76.082031 123.046875 C 76.082031 128.640625 71.527344 133.195312 65.929688 133.195312 Z M 142.085938 133.195312 C 136.488281 133.195312 131.9375 128.640625 131.9375 123.046875 C 131.9375 117.449219 136.488281 112.898438 142.085938 112.898438 C 147.679688 112.898438 152.234375 117.449219 152.234375 123.046875 C 152.234375 128.640625 147.679688 133.195312 142.085938 133.195312 Z M 160.25 117.035156 C 160.25 117.105469 160.191406 117.164062 160.121094 117.164062 L 154.671875 117.164062 C 153.914062 115.546875 152.855469 114.101562 151.566406 112.898438 L 160.121094 112.898438 C 160.191406 112.898438 160.25 112.953125 160.25 113.027344 Z M 160.25 117.035156 "/>
    <path style=" stroke:none;fill-rule:nonzero;fill:rgb(0%,0%,0%);fill-opacity:1;" d="M 142.085938 117.164062 C 138.839844 117.164062 136.203125 119.800781 136.203125 123.046875 C 136.203125 126.289062 138.839844 128.929688 142.085938 128.929688 C 145.328125 128.929688 147.96875 126.289062 147.96875 123.046875 C 147.96875 119.800781 145.328125 117.164062 142.085938 117.164062 Z M 142.085938 125.179688 C 140.90625 125.179688 139.953125 124.222656 139.953125 123.046875 C 139.953125 121.871094 140.910156 120.914062 142.085938 120.914062 C 143.261719 120.914062 144.21875 121.871094 144.21875 123.046875 C 144.21875 124.222656 143.261719 125.179688 142.085938 125.179688 Z M 142.085938 125.179688 "/>
    <path style=" stroke:none;fill-rule:nonzero;fill:rgb(0%,0%,0%);fill-opacity:1;" d="M 65.929688 117.164062 C 62.6875 117.164062 60.046875 119.800781 60.046875 123.046875 C 60.046875 126.289062 62.6875 128.929688 65.929688 128.929688 C 69.175781 128.929688 71.8125 126.289062 71.8125 123.046875 C 71.8125 119.800781 69.175781 117.164062 65.929688 117.164062 Z M 65.929688 125.179688 C 64.753906 125.179688 63.796875 124.222656 63.796875 123.046875 C 63.796875 121.871094 64.757812 120.914062 65.929688 120.914062 C 67.109375 120.914062 68.0625 121.871094 68.0625 123.046875 C 68.0625 124.222656 67.109375 125.179688 65.929688 125.179688 Z M 65.929688 125.179688 "/>
  </g>
</svg>
